<?xml version="1.0" encoding="UTF-8"?>
<svg width="28px" height="28px" viewBox="0 0 28 28" version="1.1" xmlns="http://www.w3.org/2000/svg" xmlns:xlink="http://www.w3.org/1999/xlink">
    <!-- Generator: Sketch 61.1 (89650) - https://sketch.com -->
    <title>art/icons/tld-to-aprove/dog</title>
    <desc>Created with Sketch.</desc>
    <g id="art/icons/tld-to-aprove/dog" stroke="none" stroke-width="1" fill="none" fill-rule="evenodd">
        <g fill="#9896E0" fill-rule="nonzero" id="Shape-1">
            <path d="M3.80069371,23.1130888 C4.43848107,23.5650959 5.14832497,23.919844 5.9089202,24.1573863 L4.47060635,26.3139954 C4.11309659,26.8500464 3.3887224,26.9947828 2.85267132,26.637273 C2.35490959,26.3052997 2.19455701,25.6569993 2.46043143,25.1368862 L2.52939365,25.019338 L3.80069371,23.1130888 Z M14.5833333,1.16666667 C16.7811895,1.16666667 18.6893658,2.52489596 19.4646473,4.47968116 L19.5335,4.66666667 L24.3833333,4.66666667 C25.0448446,4.66666667 25.5894608,5.16717524 25.6591362,5.81016498 L25.6666667,5.94999885 L25.6666667,11.375 C25.6666667,14.0328704 23.5754085,16.2023012 20.9485691,16.3276156 L20.7083333,16.3333333 L18.7961667,16.3321667 L18.8104203,16.3635263 C19.2754933,17.3735749 19.6443042,18.3167095 19.9164818,19.1943797 L20.0445161,19.627766 C20.7657518,22.2003082 19.7286621,25.1941618 17.5638169,26.637392 C17.0277001,26.9948032 16.3033525,26.8499337 15.9459413,26.3138169 C15.5885301,25.7777001 15.7333996,25.0533525 16.2695164,24.6959413 C17.5764793,23.8246327 18.2515149,21.8759509 17.7978097,20.2576506 C17.4455369,19.0011449 16.8372737,17.5384042 15.9713012,15.8761384 C15.8759396,15.6930882 15.8261459,15.4897339 15.8261459,15.2833333 C15.8261459,14.6231337 16.3245332,14.0799436 16.9690039,14.0080605 L17.1092123,14 L20.7083333,14 C22.0976747,14 23.2349191,12.9206448 23.3272774,11.5547236 L23.3333333,11.375 L23.3333333,6.99883333 L17.6136472,7.00006824 L17.4704091,5.99857195 C17.2758266,4.63808519 16.1483073,3.59829995 14.780321,3.50658494 L14.5833333,3.5 L12.7831667,3.5 L12.5783017,3.50389564 C8.27042644,3.63569563 4.8164366,7.09906173 4.67140846,11.3859455 L4.66666667,11.6666667 L4.66631609,16.8880679 L4.67097109,17.092305 C4.76225687,18.9495018 6.29888585,20.4166667 8.16666667,20.4166667 C10.0996633,20.4166667 11.6666667,18.8496633 11.6666667,16.9166667 C11.6666667,16.1268183 11.523797,15.416107 11.2062777,14.4675176 L10.7570788,13.2056109 C10.1975498,11.6462738 9.90930052,10.544355 9.77521466,9.11410583 C9.71507223,8.47258663 10.1863712,7.90377749 10.8278904,7.84363507 C11.4694096,7.78349264 12.0382188,8.25479164 12.0983612,8.89631084 C12.1996371,9.97658728 12.4067419,10.8376191 12.8110905,12.0132787 L13.3678001,13.5759215 L13.4189446,13.7268763 C13.8098537,14.8947176 14,15.8406089 14,16.9166667 C14,20.1383277 11.3883277,22.75 8.16666667,22.75 C5.13975753,22.75 2.63542176,20.439154 2.35770657,17.4371488 L2.3393951,17.1781792 L2.33333333,16.9166667 L2.33333333,11.6666667 C2.33333333,6.09263102 6.68344803,1.51408374 12.2162292,1.1851268 L12.4308333,1.17483333 L12.4315796,1.16666667 L14.5833333,1.16666667 Z M16.1504743,6.81070338 L16.4543586,8.53411695 C16.5662457,9.1686603 16.1425491,9.77376175 15.5080058,9.88564887 C14.8734624,9.99753598 14.268361,9.57383938 14.1564739,8.93929603 L13.8525895,7.21588246 C13.7407024,6.58133911 14.164399,5.97623765 14.7989424,5.86435054 C15.4334857,5.75246343 16.0385872,6.17616002 16.1504743,6.81070338 Z"></path>
        </g>
    </g>
</svg>